<svg  viewBox="0 0 182 110">
<path d="M24.3011 32.1372L47.9001 55.8208C49.8114 57.7391 53.0571 57.2305 54.2743 54.826L81.5337 1.07957C81.8808 0.414876 82.5705 0 83.3278 0L104.389 0.0892204C105.493 0.0936815 106.386 0.981426 106.386 2.07438V50.82C106.386 51.962 107.328 52.881 108.482 52.8632L119.553 52.7115C120.667 52.6981 121.569 51.8059 121.591 50.704L122.118 20.3467C122.15 18.6069 124.219 17.6969 125.544 18.8434L181.294 67.0983C182.236 67.9147 182.236 69.369 181.289 70.1809L134.925 110L134.696 90.1797C134.687 89.5863 134.943 89.0198 135.39 88.6272L156.879 69.8061C157.826 68.9764 157.803 67.5087 156.834 66.7057L137.883 51.0788C136.539 49.968 134.497 50.9182 134.497 52.649V66.1972C134.497 67.3214 133.578 68.2359 132.442 68.2403L92.2264 68.4322C91.0859 68.4366 90.1573 67.5266 90.1528 66.3979L89.9905 28.7558C89.9815 26.5699 86.9747 25.923 86.0506 27.9082L58.931 86.1692C58.3314 87.454 56.6319 87.7618 55.6131 86.7759L0.60747 33.5291C-0.677287 32.2845 0.210774 30.1209 2.00943 30.1209L20.6948 30.5491C22.0652 30.5803 23.3635 31.1514 24.3011 32.1372Z" />
</svg>
